<svg width="405" height="284" viewBox="0 0 405 284" fill="none" xmlns="http://www.w3.org/2000/svg">
<path d="M98.1367 261.897L98.3232 261.977C128.211 274.6 163.181 281.956 200.596 282.183L202.379 282.188C240.466 282.188 276.073 274.801 306.436 261.977L306.622 261.897H350.652C350.29 260.106 350.096 258.254 350.096 256.356C350.096 241.185 362.235 228.851 377.329 228.532V211.244L377.554 210.968C393.988 190.791 403.459 167.534 403.751 142.774L403.758 141.595C403.758 116.393 394.249 92.7175 377.554 72.2207L377.329 71.9443V54.5703C362.234 54.2513 350.096 41.9162 350.096 26.7451C350.096 24.8474 350.291 22.9946 350.653 21.2031H306.411L306.225 21.125C275.908 8.35516 240.378 1 202.379 1C164.38 1.00009 128.849 8.35506 98.5332 21.125L98.3467 21.2031H54.1104C54.4726 22.9949 54.665 24.848 54.665 26.7451C54.665 41.9151 42.5287 54.2496 27.4355 54.5703V71.9365L27.2109 72.2129C10.5114 92.7114 1 116.39 1 141.595H0C0 116.127 9.61346 92.2299 26.4355 71.5811V53.5732C26.5677 53.5752 26.7003 53.5781 26.833 53.5781C41.6521 53.578 53.665 41.5642 53.665 26.7451C53.665 24.4885 53.386 22.2971 52.8613 20.2031H98.1445C128.59 7.37891 164.253 8.58513e-05 202.379 0C240.505 0 276.168 7.37901 306.613 20.2031H351.901C351.377 22.2972 351.096 24.4884 351.096 26.7451C351.096 41.5643 363.11 53.5781 377.929 53.5781C378.062 53.5781 378.196 53.5752 378.329 53.5732V71.5889C395.147 92.236 404.758 116.13 404.758 141.595C404.758 167.06 395.147 190.953 378.329 211.6V229.529C378.196 229.527 378.062 229.524 377.929 229.524C363.11 229.524 351.096 241.537 351.096 256.356C351.096 258.613 351.376 260.804 351.9 262.897H306.824C276.333 275.776 240.593 283.188 202.379 283.188C164.165 283.188 128.425 275.776 97.9346 262.897H52.8613C53.3858 260.804 53.665 258.613 53.665 256.356C53.6649 241.537 41.652 229.525 26.833 229.524C26.7003 229.524 26.5677 229.527 26.4355 229.529V211.607C9.61356 190.959 0.000152588 167.063 0 141.595H1C1.00015 166.799 10.5115 190.477 27.2109 210.976L27.4355 211.252V228.532C42.5286 228.853 54.6649 241.187 54.665 256.356C54.665 258.253 54.4725 260.106 54.1104 261.897H98.1367Z" fill="black"/>
</svg>
