<svg width="405" height="284" viewBox="0 0 405 284" fill="none" xmlns="http://www.w3.org/2000/svg">
<path d="M404.758 141.595C404.758 167.06 395.147 190.953 378.329 211.6V229.529C378.196 229.527 378.062 229.524 377.929 229.524C363.11 229.524 351.096 241.537 351.096 256.356C351.096 258.613 351.376 260.804 351.9 262.897H306.824C276.333 275.776 240.593 283.188 202.379 283.188C164.165 283.188 128.425 275.776 97.9346 262.897H52.8613C53.3858 260.804 53.665 258.613 53.665 256.356C53.6649 241.537 41.652 229.525 26.833 229.524C26.7003 229.524 26.5677 229.527 26.4355 229.529V211.607C9.61356 190.959 0.000152588 167.063 0 141.595C0 116.127 9.61346 92.2299 26.4355 71.5811V53.5732C26.5677 53.5752 26.7003 53.5781 26.833 53.5781C41.6521 53.578 53.665 41.5642 53.665 26.7451C53.665 24.4885 53.386 22.2971 52.8613 20.2031H98.1445C128.59 7.37891 164.253 8.58513e-05 202.379 0C240.505 0 276.168 7.37901 306.613 20.2031H351.901C351.377 22.2972 351.096 24.4884 351.096 26.7451C351.096 41.5643 363.11 53.5781 377.929 53.5781C378.062 53.5781 378.196 53.5752 378.329 53.5732V71.5889C395.147 92.236 404.758 116.13 404.758 141.595Z" fill="black"/>
</svg>
